<svg width="34" height="32" viewBox="0 0 34 32" fill="none" xmlns="http://www.w3.org/2000/svg">
<rect x="0.777344" width="32.4444" height="32" rx="16" fill="#358CCB"/>
<path d="M12.6401 23V12.4883H9.37061V23H12.6401ZM10.9878 11.082C12.0425 11.082 12.8862 10.2031 12.8862 9.14844C12.8862 8.12891 12.0425 7.28516 10.9878 7.28516C9.96826 7.28516 9.12451 8.12891 9.12451 9.14844C9.12451 10.2031 9.96826 11.082 10.9878 11.082ZM24.8394 23H24.8745V17.2344C24.8745 14.4219 24.2417 12.2422 20.937 12.2422C19.355 12.2422 18.3003 13.1211 17.8433 13.9297H17.8081V12.4883H14.6792V23H17.9487V17.7969C17.9487 16.4258 18.1948 15.125 19.8823 15.125C21.5698 15.125 21.605 16.6719 21.605 17.9023V23H24.8394Z" fill="white"/>
</svg>
