<svg width="7" height="11" viewBox="0 0 7 11" fill="none" xmlns="http://www.w3.org/2000/svg">
<path d="M0.836035 6.57822C0.719031 6.46136 0.653222 6.30282 0.653076 6.13745V5.82143C0.654992 5.65643 0.720535 5.49853 0.836035 5.38067L5.11063 1.11439C5.1887 1.03567 5.29498 0.991394 5.40586 0.991394C5.51673 0.991394 5.62301 1.03567 5.70109 1.11439L6.29155 1.70485C6.36977 1.7815 6.41386 1.88641 6.41386 1.99592C6.41386 2.10544 6.36977 2.21035 6.29155 2.28699L2.59078 5.97944L6.29155 9.67189C6.37027 9.74997 6.41454 9.85625 6.41454 9.96712C6.41454 10.078 6.37027 10.1843 6.29155 10.2624L5.70109 10.8445C5.62301 10.9232 5.51673 10.9675 5.40586 10.9675C5.29498 10.9675 5.1887 10.9232 5.11063 10.8445L0.836035 6.57822Z" fill="#CFD1D5"/>
</svg>
