<svg width="34" height="32" viewBox="0 0 34 32" fill="none" xmlns="http://www.w3.org/2000/svg">
<rect x="0.666992" width="32.4444" height="32" rx="16" fill="#358CCB"/>
<path d="M24.0259 12.5938C24.729 12.0664 25.3618 11.4336 25.854 10.6953C25.2212 10.9766 24.4829 11.1875 23.7446 11.2578C24.5181 10.8008 25.0806 10.0977 25.3618 9.21875C24.6587 9.64062 23.8501 9.95703 23.0415 10.1328C22.3384 9.39453 21.3892 8.97266 20.3345 8.97266C18.2954 8.97266 16.6431 10.625 16.6431 12.6641C16.6431 12.9453 16.6782 13.2266 16.7485 13.5078C13.6899 13.332 10.9478 11.8555 9.11963 9.64062C8.80322 10.168 8.62744 10.8008 8.62744 11.5039C8.62744 12.7695 9.26025 13.8945 10.2798 14.5625C9.68213 14.5273 9.08447 14.3867 8.59229 14.1055V14.1406C8.59229 15.9336 9.85791 17.4102 11.5454 17.7617C11.2642 17.832 10.9126 17.9023 10.5962 17.9023C10.3501 17.9023 10.1392 17.8672 9.89307 17.832C10.3501 19.3086 11.7212 20.3633 13.3384 20.3984C12.0728 21.3828 10.4907 21.9805 8.76807 21.9805C8.45166 21.9805 8.17041 21.9453 7.88916 21.9102C9.50635 22.9648 11.4399 23.5625 13.5493 23.5625C20.3345 23.5625 24.0259 17.9727 24.0259 13.0859C24.0259 12.9102 24.0259 12.7695 24.0259 12.5938Z" fill="white"/>
</svg>
